<?xml version="1.0" encoding="UTF-8"?>
<!-- Created with Inkscape (http://www.inkscape.org/) -->
<svg id="svg1" width="100mm" height="100mm" version="1.1" viewBox="0 0 100 100" xmlns="http://www.w3.org/2000/svg" xmlns:xlink="http://www.w3.org/1999/xlink">
 <defs id="defs1">
  <linearGradient id="linearGradient10" x1="17.554" x2="77.847" y1="48.143" y2="48.143" gradientTransform="matrix(.6 0 0 .6 41.38 41.114)" gradientUnits="userSpaceOnUse">
   <stop id="stop10" offset="0"/>
  </linearGradient>
 </defs>
 <g id="layer1">
  <path id="path3" d="m52.391 9.5578v21.24h21.24" fill="#fff" stroke="#646464"/>
  <path id="rect1" d="m17.876 9.7348v82.126h55.754v-60.686l-21.441-21.441h-34.314z" fill="#fff" stroke="#646464"/>
  <path id="path4" d="m52.214 9.9118v21.417h21.417" fill="#fff" stroke="#646464"/>
  <path id="text4" transform="matrix(.26458 0 0 .26458 -3.5399 -9.9118)" d="m115 147.86q0 2.5-1.0833 4.1667-1.0417 1.625-2.8333 1.625-4 0-4-5.7917v-41.292q0-3.125-0.75-4.0833-0.70833-0.95833-3.9583-0.95833h-1.875q-1.7917 0-1.7917-1.7083 0-2.2917 3.2917-4.0833 3.2917-1.7917 7.2917-1.7917 5.7083 0 5.7083 6.5417zm52.042 5.7917q-13.292 0-13.292-13.125v-33.542q0-13.042 13.292-13.042h14.417q13.417 0 13.417 13.042v33.542q0 13.125-13.417 13.125zm-5.375-13.208q0 5.625 5.5417 5.625h14.083q5.5417 0 5.5417-5.625v-33.292q0-5.625-5.5417-5.625h-14.083q-5.5417 0-5.5417 5.625zm-46.333 119.87q-13.292 0-13.292-13.125v-33.542q0-13.042 13.292-13.042h14.417q13.417 0 13.417 13.042v33.542q0 13.125-13.417 13.125zm-5.375-13.208q0 5.625 5.5417 5.625h14.083q5.5417 0 5.5417-5.625v-33.292q0-5.625-5.5417-5.625h-14.083q-5.5417 0-5.5417 5.625zm66.917-20.25q4.625 0 6.75-2.375 2.125-2.4167 2.125-7.6667 0-4.5417-1.75-6.5833-1.7083-2.0417-7.125-2.0417h-18.667q-1.875 0-1.875-1.5417 0-2.3333 3.375-4.1667 3.375-1.875 7.625-1.875h9.375q9.5 0 13.375 3.875 3.875 3.875 3.875 12.333 0 17.667-17.083 17.667h-6.8333q-8.875 0-8.875 9.2083v2.7083q0 3.2917 1.25 4.6667 1.2917 1.3333 4.6667 1.3333h24.542q1.875 0 1.875 1.7083 0 2.4167-2.7917 4.125-2.7917 1.6667-6.8333 1.6667h-25.25q-5.375 0-5.375-6.4167v-9.7083q0-8.1667 4.3333-12.542 4.375-4.375 12.458-4.375zm40.875 33.458q-13.292 0-13.292-13.125v-33.542q0-13.042 13.292-13.042h14.417q13.417 0 13.417 13.042v33.542q0 13.125-13.417 13.125zm-5.375-13.208q0 5.625 5.5417 5.625h14.083q5.5417 0 5.5417-5.625v-33.292q0-5.625-5.5417-5.625h-14.083q-5.5417 0-5.5417 5.625zm-97.375 114.08q0 2.5-1.0833 4.1667-1.0417 1.625-2.8333 1.625-4 0-4-5.7917v-41.292q0-3.125-0.75-4.0833-0.70833-0.95833-3.9583-0.95833h-1.875q-1.7917 0-1.7917-1.7083 0-2.2917 3.2917-4.0833 3.2917-1.7917 7.2917-1.7917 5.7083 0 5.7083 6.5417zm52.042 5.7917q-13.292 0-13.292-13.125v-33.542q0-13.042 13.292-13.042h14.417q13.417 0 13.417 13.042v33.542q0 13.125-13.417 13.125zm-5.375-13.208q0 5.625 5.5417 5.625h14.083q5.5417 0 5.5417-5.625v-33.292q0-5.625-5.5417-5.625h-14.083q-5.5417 0-5.5417 5.625zm81 7.4167q0 2.5-1.0833 4.1667-1.0417 1.625-2.8333 1.625-4 0-4-5.7917v-41.292q0-3.125-0.75-4.0833-0.70834-0.95833-3.9583-0.95833h-1.875q-1.7917 0-1.7917-1.7083 0-2.2917 3.2917-4.0833 3.2917-1.7917 7.2917-1.7917 5.7083 0 5.7083 6.5417z" fill="#fff" stroke="#646464" stroke-width="3.7795" style="white-space:pre" aria-label="1 0
020
1 0 1

"/>
  <circle id="path6" cx="70" cy="70" r="28.5" fill="#fff" stroke="url(#linearGradient10)" stroke-width="3"/>
  <ellipse id="path10" cx="70" cy="70" rx="24" ry="24" fill="#00c80a"/>
  <path id="text10" d="m83.2 82.09q0 1.2561-0.50926 2.0935-0.50926 0.81646-1.4463 0.81646-1.9759 0-1.9759-2.91v-17.711l-6.9667 13.629q-1.1204 2.1982-2.3222 2.1982-1.2426 0-2.3426-2.0935l-6.9667-13.733v17.711q0 2.91-1.9556 2.91-1.9148 0-1.9148-2.91v-24.18q0-2.91 1.9148-2.91 1.2833 0 2.3222 2.0098l7.6389 14.843q0.79444 1.5283 1.3037 1.5283 0.52963 0 1.3241-1.5283l7.5574-14.717q1.1-2.1354 2.3833-2.1354 1.9556 0 1.9556 2.91z" fill="#fff" stroke-width="4.2209" style="white-space:pre" aria-label="M"/>
 </g>
</svg>
