<?xml version="1.0" encoding="UTF-8"?>
<!-- Created with Inkscape (http://www.inkscape.org/) -->
<svg id="svg1" width="100mm" height="100mm" version="1.1" viewBox="0 0 100 100" xmlns="http://www.w3.org/2000/svg" xmlns:xlink="http://www.w3.org/1999/xlink">
 <defs id="defs1">
  <linearGradient id="linearGradient10" x1="17.554" x2="77.847" y1="48.143" y2="48.143" gradientTransform="translate(2.2995 1.857)" gradientUnits="userSpaceOnUse">
   <stop id="stop10" offset="0"/>
  </linearGradient>
 </defs>
 <g id="layer1">
  <circle id="path6" cx="50" cy="50" r="47.5" fill="#fff" stroke="url(#linearGradient10)" stroke-width="5"/>
  <circle id="path10" cx="50" cy="50" r="40" fill="#00c80a"/>
  <path id="text10" transform="matrix(.3672 0 0 .37738 -10.255 -51.266)" d="m224 321.73q0 5.5474-2.3114 9.2458-2.3114 3.6058-6.5645 3.6058-8.9684 0-8.9684-12.852v-78.219l-31.62 60.19q-5.0852 9.708-10.54 9.708-5.6399 0-10.633-9.2458l-31.62-60.652v78.219q0 12.852-8.8759 12.852-8.691 0-8.691-12.852v-106.79q0-12.852 8.691-12.852 5.8248 0 10.54 8.8759l34.672 65.552q3.6058 6.7494 5.9173 6.7494 2.4039 0 6.0097-6.7494l34.302-64.998q4.9927-9.4307 10.818-9.4307 8.8759 0 8.8759 12.852z" fill="#fff" stroke-width="18.898" style="white-space:pre" aria-label="M"/>
 </g>
</svg>
