<?xml version="1.0" encoding="UTF-8"?>
<!-- Created with Inkscape (http://www.inkscape.org/) -->
<svg id="svg1" width="100mm" height="100mm" version="1.1" viewBox="0 0 100 100" xmlns="http://www.w3.org/2000/svg" xmlns:xlink="http://www.w3.org/1999/xlink">
 <defs id="defs1">
  <linearGradient id="linearGradient10" x1="17.554" x2="77.847" y1="48.143" y2="48.143" gradientTransform="translate(2.2995 1.857)" gradientUnits="userSpaceOnUse">
   <stop id="stop10" offset="0"/>
  </linearGradient>
  <radialGradient id="radialGradient15" cx="73" cy="51" r="17.53" gradientUnits="userSpaceOnUse">
   <stop id="stop14" offset=".37666"/>
   <stop id="stop15" stop-color="#c8c8c8" offset="1"/>
  </radialGradient>
 </defs>
 <g id="layer1">
  <circle id="path6" cx="50" cy="50" r="47.5" fill="#fff" stroke="url(#linearGradient10)" stroke-width="5"/>
  <circle id="path10" cx="50" cy="50" r="40" fill="#808080"/>
  <path id="text10" d="m72 70.15q0 2.0935-0.84877 3.4892-0.84877 1.3608-2.4105 1.3608-3.2932 0-3.2932-4.85v-29.518l-11.611 22.715q-1.8673 3.6636-3.8704 3.6636-2.071 0-3.9043-3.4892l-11.611-22.889v29.518q0 4.85-3.2593 4.85-3.1914 0-3.1914-4.85v-40.3q0-4.85 3.1914-4.85 2.1389 0 3.8704 3.3496l12.731 24.738q1.3241 2.5471 2.1728 2.5471 0.88271 0 2.2068-2.5471l12.596-24.529q1.8333-3.559 3.9722-3.559 3.2593 0 3.2593 4.85z" fill="#fff" stroke-width="7.0348" style="white-space:pre" aria-label="M"/>
  <path id="path13" d="m73 33.969a17.031 17.031 0 0 0-17.03 17.03 17.031 17.031 0 0 0 17.03 17.03 17.031 17.031 0 0 0 17.03-17.03 17.031 17.031 0 0 0-17.03-17.03zm0 9.0305a8 8 0 0 1 8 8 8 8 0 0 1-8 8 8 8 0 0 1-8-8 8 8 0 0 1 8-8z" fill="url(#radialGradient15)" stroke="#000"/>
  <rect id="rect13" x="50.988" y="50.988" width="43.024" height="43.024" rx="7.4029" ry="5.5807" fill="#d2c83c" stroke="#000"/>
 </g>
</svg>
